<?xml version="1.0" standalone="no"?>
<!DOCTYPE svg PUBLIC "-//W3C//DTD SVG 20010904//EN"
 "http://www.w3.org/TR/2001/REC-SVG-20010904/DTD/svg10.dtd">
<svg version="1.0" xmlns="http://www.w3.org/2000/svg"
 width="437.000000pt" height="437.000000pt" viewBox="0 0 437.000000 437.000000"
 preserveAspectRatio="xMidYMid meet">
<metadata>
Created by potrace 1.11, written by Peter Selinger 2001-2013
</metadata>
<g transform="translate(0.000000,437.000000) scale(0.100000,-0.100000)"
fill="#000000" stroke="none">
<path d="M1258 4275 c-2 -1 -34 -5 -73 -7 -82 -6 -193 -37 -285 -81 -56 -26
-191 -117 -226 -152 -7 -6 -25 -22 -41 -36 -24 -20 -101 -118 -200 -254 -46
-63 -124 -217 -159 -312 -19 -54 -56 -181 -80 -283 -41 -172 -49 -214 -71
-375 -10 -76 -10 -433 0 -545 10 -118 12 -131 47 -345 36 -226 194 -798 214
-778 4 4 4 0 1 -8 -5 -13 22 -105 54 -184 5 -11 19 -47 31 -80 50 -130 162
-327 236 -415 204 -242 441 -353 650 -305 201 46 370 198 494 445 49 97 117
279 135 358 5 25 15 36 43 48 35 15 256 93 277 98 6 1 55 16 110 33 86 27 227
67 275 78 8 2 42 11 75 21 33 9 76 20 95 25 19 4 62 14 95 22 33 8 105 25 160
38 55 13 102 27 103 31 2 5 7 6 11 3 4 -2 77 14 162 36 85 23 163 43 174 45
47 9 191 59 197 69 4 5 8 7 8 3 0 -24 197 83 257 140 134 128 225 412 226 707
0 178 -23 287 -105 480 -83 197 -81 194 -265 405 -12 14 -32 37 -45 51 -13 14
-66 59 -118 100 -52 40 -97 76 -100 79 -17 19 -104 78 -225 152 -297 183 -770
395 -1185 531 -170 56 -506 136 -640 153 -55 7 -306 14 -312 9z"/>
</g>
</svg>
